HIERARCHY
ROOT Hips
{
 OFFSET 0.000000 0.000000 0.000000
 CHANNELS 6 Xposition Yposition Zposition Yrotation Xrotation Zrotation
 JOINT Chest
 {
  OFFSET 0.000000 9.585900 0.002600
  CHANNELS 3 Yrotation Xrotation Zrotation
  JOINT Chest2
  {
   OFFSET 0.000000 9.601200 -0.005300
   CHANNELS 3 Yrotation Xrotation Zrotation
   JOINT Chest3
   {
    OFFSET 0.000000 9.561800 0.000000
    CHANNELS 3 Yrotation Xrotation Zrotation
    JOINT Chest4
    {
     OFFSET 0.000000 9.552100 0.000000
     CHANNELS 3 Yrotation Xrotation Zrotation
     JOINT Neck
     {
      OFFSET 0.000000 14.453000 0.000000
      CHANNELS 3 Yrotation Xrotation Zrotation
      JOINT Head
      {
       OFFSET 0.000000 8.936500 -0.011300
       CHANNELS 3 Yrotation Xrotation Zrotation
       End Site
       {
        OFFSET 0.000000 17.073600 -0.006000
       }
      }
     }
     JOINT RightCollar
     {
      OFFSET -2.921100 9.558500 0.000000
      CHANNELS 3 Yrotation Xrotation Zrotation
      JOINT RightShoulder
      {
       OFFSET -13.519700 0.000000 0.000000
       CHANNELS 3 Yrotation Xrotation Zrotation
       JOINT RightElbow
       {
        OFFSET 0.000000 -29.696600 0.000000
        CHANNELS 3 Yrotation Xrotation Zrotation
        JOINT RightWrist
        {
         OFFSET 0.000000 -24.004700 0.000000
         CHANNELS 3 Yrotation Xrotation Zrotation
         End Site
         {
          OFFSET 0.000000 -17.728500 0.000000
         }
        }
       }
      }
     }
     JOINT LeftCollar
     {
      OFFSET 2.921100 9.558500 0.000000
      CHANNELS 3 Yrotation Xrotation Zrotation
      JOINT LeftShoulder
      {
       OFFSET 13.519700 0.000000 0.000000
       CHANNELS 3 Yrotation Xrotation Zrotation
       JOINT LeftElbow
       {
        OFFSET 0.000000 -29.696600 0.000000
        CHANNELS 3 Yrotation Xrotation Zrotation
        JOINT LeftWrist
        {
         OFFSET 0.000000 -24.004700 0.000000
         CHANNELS 3 Yrotation Xrotation Zrotation
         End Site
         {
          OFFSET 0.000000 -17.728500 0.000000
         }
        }
       }
      }
     }
    }
   }
  }
 }
 JOINT RightHip
 {
  OFFSET -7.771700 -0.012900 -0.001300
  CHANNELS 3 Yrotation Xrotation Zrotation
  JOINT RightKnee
  {
   OFFSET 0.000000 -40.869800 0.001200
   CHANNELS 3 Yrotation Xrotation Zrotation
   JOINT RightAnkle
   {
    OFFSET 0.000000 -39.717900 0.002100
    CHANNELS 3 Yrotation Xrotation Zrotation
    JOINT RightToe
    {
     OFFSET 0.000000 -4.965400 11.033500
     CHANNELS 3 Yrotation Xrotation Zrotation
     End Site
     {
      OFFSET 0.000000 -1.423100 5.872300
     }
    }
   }
  }
 }
 JOINT LeftHip
 {
  OFFSET 7.771700 -0.012900 -0.001300
  CHANNELS 3 Yrotation Xrotation Zrotation
  JOINT LeftKnee
  {
   OFFSET 0.000000 -40.869800 0.001200
   CHANNELS 3 Yrotation Xrotation Zrotation
   JOINT LeftAnkle
   {
    OFFSET 0.000000 -39.717900 0.002100
    CHANNELS 3 Yrotation Xrotation Zrotation
    JOINT LeftToe
    {
     OFFSET 0.000000 -4.965400 11.033500
     CHANNELS 3 Yrotation Xrotation Zrotation
     End Site
     {
      OFFSET 0.000000 -1.423100 5.872300
     }
    }
   }
  }
 }
}
MOTION
Frames: 5
Frame Time: 0.008333
-239.886764 57.629400 -83.419876 163.354012 -7.928462 0.872884 3.069543 7.596824 1.573208 0.202241 0.379116 0.028864 0.237104 0.653745 0.045596 2.660321 7.207068 0.657330 9.236877 16.764702 -1.900854 17.731086 -3.854453 -6.636936 1.269733 6.473100 -1.583439 -8.942007 -8.705740 -9.805665 -136.712582 -81.384310 158.300612 -5.785674 1.703700 -35.814199 -3.534136 9.153849 0.583684 20.328924 -9.388000 4.507361 104.461987 -73.013846 -135.719096 0.203532 3.293325 13.872980 -9.270917 -64.328291 1.464597 -35.965524 73.439705 -37.184918 -3.600677 -8.267405 0.801062 -0.217596 0.842373 -0.128283 -1.980404 -66.439504 14.044615 44.528811 64.666762 38.163600 -17.154682 -9.011685 3.389268 -0.195670 -1.151502 -0.146880
-239.891479 57.619336 -83.406299 163.456934 -7.977279 0.879430 3.133410 7.653459 1.583319 0.173674 0.385881 0.025922 0.244646 0.667321 0.044614 2.712571 7.273470 0.644871 9.670592 16.734297 -1.865544 18.522702 -3.855129 -6.716677 1.326275 6.306424 -1.655097 -8.773526 -8.884961 -10.167622 -136.033405 -81.327167 157.513547 -5.824143 1.613918 -35.890662 -3.484987 9.173348 0.730052 20.776868 -9.577213 4.599261 105.869007 -72.713424 -137.135528 0.212028 3.193926 13.913682 -9.409477 -64.297443 1.431770 -35.931087 73.471256 -37.138936 -3.539844 -8.278530 0.769615 -0.240091 0.843610 -0.134911 -2.190082 -66.402261 14.055386 44.509290 64.627986 38.189478 -17.113989 -8.951344 3.324239 -0.142340 -1.161446 -0.150030
-239.899994 57.609394 -83.392987 163.555345 -8.032566 0.911060 3.201611 7.722865 1.565188 0.144781 0.390779 0.024399 0.252622 0.681454 0.043211 2.767474 7.342073 0.628514 10.105104 16.701418 -1.821421 19.313246 -3.860022 -6.780544 1.394512 6.135676 -1.720670 -8.572105 -9.098835 -10.554107 -135.235082 -81.267460 156.609796 -5.859524 1.530669 -35.971980 -3.448756 9.195472 0.873695 21.249801 -9.792404 4.713534 107.328594 -72.411485 -138.583999 0.207020 3.104875 13.946799 -9.491504 -64.264182 1.339955 -35.858846 73.507108 -37.063975 -3.481058 -8.294105 0.749468 -0.268751 0.853460 -0.147011 -2.342626 -66.359762 14.005262 44.547310 64.579208 38.254080 -17.081955 -8.886113 3.284382 -0.122780 -1.175968 -0.159740
-239.915286 57.599979 -83.381161 163.636018 -8.096232 0.991537 3.247065 7.800224 1.495517 0.149628 0.399457 0.023364 0.260909 0.696131 0.041470 2.823421 7.412666 0.609168 10.539523 16.668088 -1.770651 20.101537 -3.865211 -6.831855 1.480174 5.959708 -1.781797 -8.340010 -9.348528 -10.965459 -134.357743 -81.204482 155.637184 -5.892822 1.463438 -36.065840 -3.418747 9.225976 1.007633 21.744709 -10.040723 4.852687 108.812683 -72.107762 -140.033770 0.194889 3.025636 13.966488 -9.559749 -64.234548 1.193212 -35.595015 73.575867 -36.849994 -3.352820 -8.308676 0.766735 -0.382966 0.865454 -0.199074 -2.339517 -66.309759 13.820012 44.576509 64.533553 38.311720 -17.091283 -8.814869 3.246388 -0.109758 -1.202104 -0.162039
-239.917797 57.591141 -83.366633 163.717292 -8.177288 1.001475 3.298486 7.889632 1.496200 0.154669 0.408501 0.022217 0.269568 0.711482 0.039507 2.880255 7.485467 0.587906 10.973128 16.634371 -1.715254 20.886986 -3.870628 -6.874140 1.584947 5.771567 -1.834607 -8.072324 -9.633573 -11.405209 -133.430242 -81.146850 154.624396 -5.925477 1.404087 -36.166485 -3.382818 9.264395 1.133723 22.262705 -10.324362 5.014823 110.276121 -71.800928 -141.455007 0.180335 2.952837 13.972844 -9.668389 -64.166165 1.154816 -35.555594 73.594407 -36.798020 -3.304403 -8.327548 0.735512 -0.403203 0.880213 -0.208250 -2.462826 -66.239075 13.792623 44.557365 64.496290 38.333847 -17.089647 -8.777105 3.188437 -0.125368 -1.188312 -0.125556
